HIERARCHY
ROOT Hips
{
	OFFSET 0.000000 8.830580 0.000000
	CHANNELS 6 Xposition Yposition Zposition Zrotation Yrotation Xrotation 
	JOINT Spine
	{
		OFFSET 0.000000 0.010000 0.000000
		CHANNELS 3 Zrotation Yrotation Xrotation
		JOINT Spine1
		{
			OFFSET 0.000000 2.459130 0.000000
			CHANNELS 3 Zrotation Yrotation Xrotation
			JOINT Neck
			{
				OFFSET 0.000000 2.484630 0.000000
				CHANNELS 3 Zrotation Yrotation Xrotation
				JOINT Head_virtual
				{
					OFFSET 0.000000 0.000000 0.000000
					CHANNELS 3 Zrotation Yrotation Xrotation
					JOINT Head
					{
						OFFSET 0.000000 0.927525 0.000000
						CHANNELS 3 Zrotation Yrotation Xrotation
						End Site
						{
							OFFSET 0.000000 0.000000 0.000000
						}
					}
				}
				JOINT LeftUpArm_virtual
				{
					OFFSET 0.000000 0.000000 0.000000
					CHANNELS 3 Zrotation Yrotation Xrotation
					JOINT LeftUpArm
					{
						OFFSET 1.248820 0.000000 0.000000
						CHANNELS 3 Zrotation Yrotation Xrotation
						JOINT LeftForeArm
						{
							OFFSET 2.597580 0.000000 0.000000
							CHANNELS 3 Zrotation Yrotation Xrotation
							JOINT LeftHand
							{
								OFFSET 2.455420 0.000000 0.000000
								CHANNELS 3 Zrotation Yrotation Xrotation
								End Site
								{
									OFFSET 0.000000 0.000000 0.000000
								}
							}
						}
					}
				}
				JOINT RightUpArm_virtual
				{
					OFFSET -0.000000 -0.000000 -0.000000
					CHANNELS 3 Zrotation Yrotation Xrotation
					JOINT RightUpArm
					{
						OFFSET -1.248820 -0.000000 -0.000000
						CHANNELS 3 Zrotation Yrotation Xrotation
						JOINT RightForeArm
						{
							OFFSET -2.597580 -0.000000 -0.000000
							CHANNELS 3 Zrotation Yrotation Xrotation
							JOINT RightHand
							{
								OFFSET -2.455420 -0.000000 -0.000000
								CHANNELS 3 Zrotation Yrotation Xrotation
								End Site
								{
									OFFSET 0.000000 0.000000 0.000000
								}
							}
						}
					}
				}
			}
		}
	}
	JOINT LeftUpLeg
	{
		OFFSET 1.271939 0.000000 0.000000
		CHANNELS 3 Zrotation Yrotation Xrotation
		JOINT LeftLowLeg
		{
			OFFSET 0.000000 -4.342910 0.000000
			CHANNELS 3 Zrotation Yrotation Xrotation
			JOINT LeftFoot
			{
				OFFSET 0.000000 -4.487670 0.000000
				CHANNELS 3 Zrotation Yrotation Xrotation
				JOINT LeftToeBase
				{
					OFFSET 0.000000 0.000000 1.515070
					CHANNELS 3 Zrotation Yrotation Xrotation
					End Site
					{
						OFFSET 0.000000 0.000000 0.000000
					}
				}
			}
		}
	}
	JOINT RightUpLeg
	{
		OFFSET -1.271939 0.000000 0.000000
		CHANNELS 3 Zrotation Yrotation Xrotation
		JOINT RightLowLeg
		{
			OFFSET 0.000000 -4.342910 0.000000
			CHANNELS 3 Zrotation Yrotation Xrotation
			JOINT RightFoot
			{
				OFFSET 0.000000 -4.487670 0.000000
				CHANNELS 3 Zrotation Yrotation Xrotation
				JOINT RightToeBase
				{
					OFFSET 0.000000 0.000000 1.515070
					CHANNELS 3 Zrotation Yrotation Xrotation
					End Site
					{
						OFFSET 0.000000 0.000000 0.000000
					}
				}
			}
		}
	}
}
MOTION
Frames: 16
Frame Time: 0.041667
-17.924744 9.129598 42.118142 -174.136606 3.528588 -172.856510 2.962661 -1.586624 -9.663530 11.229184 -3.149465 22.254707 0.000000 0.000000 0.000000 5.855137 -3.508094 -12.608138 -0.224072 8.795847 -56.744207 -21.390100 2.347060 5.172530 -46.147499 -16.305099 24.565201 0.000000 -31.162901 0.000000 11.854500 9.369940 3.950860 23.865400 3.183400 8.876300 36.222301 25.774000 33.000401 180.000000 41.434006 180.000000 6.949810 11.015400 -34.215099 7.163346 2.001810 -16.500857 0.000000 0.000000 19.570400 8.253744 -0.192419 3.766021 0.000000 0.000000 -33.572800 8.083517 -1.293825 -5.773987 0.000000 0.000000 5.137640 5.109602 -8.479181 10.318825 0.000000 0.000000 -26.719800 
-17.880270 9.122355 42.147894 -174.048418 2.998675 -172.848126 3.081299 -1.565284 -9.614071 11.431617 -3.168492 22.401799 0.000000 0.000000 0.000000 6.017026 -3.593341 -13.128149 -0.282985 8.818566 -56.349512 -21.336201 2.265620 5.220810 -46.344898 -16.266800 24.777800 0.000000 -30.354700 0.000000 11.459000 9.305190 3.667980 23.756399 3.339100 9.018010 36.151600 25.782400 32.968700 -180.000000 41.479996 -180.000000 6.760700 11.004100 -34.016701 7.561997 1.818594 -17.169717 0.000000 0.000000 20.238501 8.056143 -0.532963 3.689560 0.000000 0.000000 -33.760500 8.484354 -1.650504 -5.761728 0.000000 0.000000 4.840320 5.139587 -8.473706 10.310676 0.000000 0.000000 -26.585400 
-17.836750 9.114290 42.176406 -173.982064 2.473230 -172.798198 3.177811 -1.554307 -9.266829 11.672285 -3.085831 21.772077 0.000000 0.000000 0.000000 6.089086 -3.682314 -13.040539 -0.373780 8.760767 -56.288761 -21.467600 2.235720 5.506880 -46.383099 -16.076900 24.725300 0.000000 -29.539900 0.000000 11.125500 9.243010 3.697460 23.824100 3.295900 9.394710 35.893101 25.746300 32.929100 -180.000000 41.494995 -180.000000 6.456070 11.001500 -33.803398 7.936289 1.564703 -17.858583 0.000000 0.000000 20.870600 7.896896 -0.771522 3.630729 0.000000 0.000000 -33.900101 8.860818 -1.945595 -5.817815 0.000000 0.000000 4.589680 5.148245 -8.541627 10.249098 0.000000 0.000000 -26.464100 
-17.793080 9.108828 42.200630 -173.905474 1.981556 -172.828282 3.223451 -1.519337 -9.196061 11.946416 -3.041932 21.727668 0.000000 0.000000 0.000000 6.255217 -3.792156 -13.375012 -0.515574 8.761338 -56.036136 -21.478201 2.152030 5.731400 -46.533199 -16.106800 24.519100 0.000000 -28.777300 0.000000 10.936600 9.301970 3.706050 23.780899 3.254200 9.599290 35.694302 25.924000 32.728500 180.000000 41.490997 -180.000000 6.311050 11.121500 -33.820301 8.336554 1.206295 -18.371817 0.000000 0.000000 21.377399 7.737682 -0.910054 3.636659 0.000000 0.000000 -33.981600 9.236587 -2.269428 -5.826205 0.000000 0.000000 4.421010 5.124127 -8.554622 10.269593 0.000000 0.000000 -26.495100 
-17.753245 9.104530 42.224202 -173.878782 1.581001 -172.843296 3.200904 -1.593867 -9.213986 12.200296 -3.107621 21.823036 0.000000 0.000000 0.000000 6.264663 -3.794252 -13.809413 -0.725291 8.840990 -55.686893 -21.480200 2.204780 5.556210 -46.801899 -15.868700 24.340500 0.000000 -28.116301 0.000000 10.828600 9.500030 3.297800 23.658501 3.448150 9.485330 35.617100 26.049299 32.686298 -180.000000 41.427002 180.000000 6.555240 11.000100 -33.782600 8.647955 0.867746 -18.807337 0.000000 0.000000 21.740999 7.656278 -0.940385 3.732903 0.000000 0.000000 -34.099001 9.513735 -2.324742 -5.900323 0.000000 0.000000 4.356490 5.207770 -8.701589 10.232829 0.000000 0.000000 -26.468400 
-17.714973 9.101525 42.243800 -173.934291 1.212970 -172.905447 3.161054 -1.579930 -9.259921 12.314144 -3.091971 21.926972 0.000000 0.000000 0.000000 6.474345 -3.844411 -14.218531 -0.995361 8.958944 -55.302286 -21.421101 2.249780 5.539210 -46.979900 -15.846500 24.299400 0.000000 -27.499800 0.000000 10.800700 9.679670 2.829170 23.424000 3.555320 9.389070 35.741402 26.102800 32.510700 -180.000000 41.528000 -180.000000 7.473330 11.457300 -33.909599 8.861877 0.545284 -19.061997 0.000000 0.000000 21.897499 7.549714 -0.993861 3.884185 0.000000 0.000000 -34.197399 9.660952 -2.037173 -5.918264 0.000000 0.000000 4.316260 5.365388 -9.111972 10.106764 0.000000 0.000000 -26.404500 
-17.679929 9.099124 42.260060 -173.974421 0.879594 -172.957450 3.275948 -1.456118 -9.222824 12.201733 -2.973011 21.689369 0.000000 0.000000 0.000000 6.711798 -3.884213 -14.201058 -1.042356 9.016122 -55.036056 -21.347900 2.132520 5.703240 -46.995701 -15.688100 24.218100 0.000000 -27.007799 0.000000 10.629100 9.792240 2.525650 23.537800 3.474600 9.550370 35.593800 26.092899 32.410500 180.000000 41.550995 -180.000000 7.325950 11.415900 -33.940102 9.057526 0.270492 -19.224422 0.000000 0.000000 21.925400 7.503674 -1.006871 4.000719 0.000000 0.000000 -34.188900 9.834417 -1.979058 -5.922715 0.000000 0.000000 4.243130 5.365005 -9.377361 10.071220 0.000000 0.000000 -26.422700 
-17.647527 9.097743 42.274451 -173.993864 0.609730 -173.025975 3.409602 -1.360942 -9.266427 12.061169 -2.908333 21.593006 0.000000 0.000000 0.000000 6.844023 -3.886454 -14.199489 -1.032991 9.065457 -54.645595 -21.251801 2.075650 5.664700 -47.030998 -15.446600 24.291700 0.000000 -26.650801 0.000000 10.523300 9.864470 2.480850 23.551100 3.448310 9.563530 35.559399 26.149200 32.545502 -180.000000 41.593002 -180.000000 6.922470 11.165100 -34.107601 9.253500 0.103914 -19.290232 0.000000 0.000000 21.863600 7.447553 -1.095346 4.103451 0.000000 0.000000 -34.268101 10.042964 -2.097026 -5.941023 0.000000 0.000000 4.245750 5.197187 -9.539288 10.072178 0.000000 0.000000 -26.410300 
-17.618669 9.097077 42.285645 -174.043185 0.344704 -173.101645 3.394522 -1.482951 -9.368786 12.113179 -3.012618 21.545060 0.000000 0.000000 0.000000 6.685533 -3.821287 -14.058916 -0.950750 9.049536 -54.260980 -21.222900 2.273910 5.536410 -47.214401 -15.249500 24.243401 0.000000 -26.287701 0.000000 10.262400 9.847110 2.599500 23.314800 3.689490 9.548350 35.705299 26.130699 32.628899 180.000000 41.666000 180.000000 6.917770 11.131700 -34.194401 9.386607 0.065007 -19.274612 0.000000 0.000000 21.693199 7.342032 -1.340563 4.216656 0.000000 0.000000 -34.343800 10.217307 -2.488853 -5.963826 0.000000 0.000000 4.298790 5.056191 -9.460868 10.058143 0.000000 0.000000 -26.368200 
-17.590044 9.096285 42.290561 -174.123102 0.040784 -173.264103 3.497442 -1.399839 -9.491378 11.879008 -2.966816 21.518676 0.000000 0.000000 0.000000 6.993393 -3.899980 -13.704282 -0.998629 9.059374 -54.150801 -21.086901 2.195470 5.571340 -47.187599 -15.111800 24.333599 0.000000 -26.098200 0.000000 10.076400 9.932320 2.689010 23.415501 3.580210 9.475350 35.632198 26.155300 32.764400 180.000000 41.572998 -180.000000 6.374570 10.870400 -33.949600 9.486677 0.021463 -19.076902 0.000000 0.000000 21.366501 7.157727 -1.665427 4.365248 0.000000 0.000000 -34.370300 10.351638 -2.787286 -5.827067 0.000000 0.000000 4.282560 4.861505 -9.507539 10.016832 0.000000 0.000000 -26.394600 
-17.565853 9.096019 42.300799 -174.176731 -0.052602 -173.383328 3.553227 -1.346773 -9.519294 11.814651 -2.915455 21.392148 0.000000 0.000000 0.000000 6.920663 -3.904514 -13.304338 -0.875234 8.960876 -53.982883 -21.131800 2.266140 5.541380 -47.106800 -14.967700 24.439699 0.000000 -26.030199 0.000000 9.920750 9.987450 2.375100 23.380100 3.605820 9.430850 35.561798 26.193600 32.723400 180.000000 41.533997 180.000000 6.473190 10.962000 -33.888199 9.547866 0.214751 -18.851738 0.000000 0.000000 20.966200 7.080967 -1.933397 4.507071 0.000000 0.000000 -34.395700 10.431671 -2.556611 -5.861404 0.000000 0.000000 4.460000 4.779275 -9.814148 9.941013 0.000000 0.000000 -26.425800 
-17.542186 9.095730 42.304720 -174.242116 -0.262196 -173.610340 3.604197 -1.338894 -9.571798 11.692542 -2.925978 21.380141 0.000000 0.000000 0.000000 6.973453 -3.905094 -12.847820 -0.846653 8.933169 -53.774037 -21.066900 2.260550 5.416610 -47.140400 -14.745100 24.432699 0.000000 -26.047300 0.000000 9.887170 9.990990 2.333050 23.433701 3.545650 9.430760 35.414101 26.260500 32.779598 180.000000 41.419998 180.000000 6.096630 10.675300 -33.822201 9.625594 0.200811 -18.493917 0.000000 0.000000 20.517799 6.891734 -2.213077 4.656882 0.000000 0.000000 -34.400101 10.514453 -2.532487 -5.732758 0.000000 0.000000 4.597050 4.676228 -10.078564 9.840223 0.000000 0.000000 -26.428600 
-17.521542 9.095340 42.311808 -174.285698 -0.443227 -173.782780 3.614505 -1.420819 -9.616385 11.714392 -3.000083 21.331864 0.000000 0.000000 0.000000 6.878783 -3.874645 -12.331720 -0.899996 8.884348 -53.551788 -21.100300 2.378820 5.298030 -47.161800 -14.616600 24.465000 0.000000 -26.123400 0.000000 9.974440 9.991510 2.304260 23.376699 3.577480 9.448730 35.245800 26.402300 32.861301 -180.000000 41.425995 -180.000000 5.834230 10.473300 -33.940899 9.719448 0.059161 -18.244010 0.000000 0.000000 20.157700 6.745796 -2.298035 4.816483 0.000000 0.000000 -34.368999 10.599877 -2.525157 -5.700343 0.000000 0.000000 4.769680 4.526483 -10.279631 9.762937 0.000000 0.000000 -26.426300 
-17.501665 9.094290 42.318364 -174.294260 -0.644998 -173.928780 3.712152 -1.383451 -9.652441 11.640392 -2.977222 21.213314 0.000000 0.000000 0.000000 6.983537 -3.926317 -11.717266 -0.894018 8.812916 -53.470701 -21.035700 2.371090 5.371820 -47.151001 -14.653300 24.522499 0.000000 -26.283400 0.000000 10.186200 9.991620 1.602000 23.389999 3.449360 9.288990 35.201801 26.348499 33.086102 -180.000000 41.472000 -180.000000 5.532030 10.259900 -34.097198 9.856120 -0.187678 -18.068801 0.000000 0.000000 19.887300 6.597935 -2.284589 4.934832 0.000000 0.000000 -34.326599 10.736001 -2.749331 -5.695648 0.000000 0.000000 4.946710 4.455818 -10.271881 9.728786 0.000000 0.000000 -26.552800 
-17.483735 9.093085 42.325664 -174.282180 -0.881180 -174.036794 3.752707 -1.487053 -9.741933 11.677426 -3.091798 21.256440 0.000000 0.000000 0.000000 7.031855 -3.942536 -11.289160 -1.031884 8.803554 -53.390528 -21.007900 2.585630 5.222060 -47.220100 -14.748300 24.634001 0.000000 -26.539400 0.000000 10.276500 10.079300 1.645770 23.199100 3.477130 9.118090 35.367802 26.286501 33.129501 180.000000 41.623993 180.000000 5.983690 10.458300 -34.309700 10.015404 -0.539049 -18.011424 0.000000 0.000000 19.739799 6.491583 -2.186960 5.042893 0.000000 0.000000 -34.319201 10.883404 -3.009106 -5.701798 0.000000 0.000000 5.066480 4.325255 -10.281749 9.705737 0.000000 0.000000 -26.574800 
-17.466354 9.091313 42.331962 -174.287292 -1.167996 -174.159009 3.842294 -1.464367 -9.810776 11.590112 -3.096882 21.247430 0.000000 0.000000 0.000000 7.384411 -4.063540 -10.751265 -1.203814 8.823728 -53.491565 -20.901501 2.512710 5.334350 -47.186798 -14.927300 24.596201 0.000000 -26.853100 0.000000 10.441200 10.054200 1.732450 23.207199 3.317960 9.113170 35.337200 26.202900 33.091702 180.000000 41.647003 -180.000000 5.765310 10.474800 -34.136501 10.163109 -0.924348 -18.005923 0.000000 0.000000 19.699800 6.366844 -2.133705 5.130457 0.000000 0.000000 -34.270800 10.992172 -3.105251 -5.685045 0.000000 0.000000 5.193390 4.220321 -10.457228 9.590010 0.000000 0.000000 -26.520900 
